# xmcd CD database file generated by Grip 3.2.0
# 
# Track frame offsets:
#       150
#       15122
#       30984
#       58317
#       77115
#       96782
#       111791
#       129433
#       133473
#       136780
#       155906
#       180128
#       200224
#       224449
#       242176
#       251734
#       270189
#       278532
# 
# Disc length: 3741 seconds
# 
# Revision: 2
# Processed by: cddbd v1.5.2PL0 Copyright (c) Steve Scherf et al.
# Submitted via: Grip 3.2.0
# 
DISCID=fb0e9b12
DTITLE=Earth, Wind and Fire - Greatest Hits Live
DYEAR=2007
DGENRE=Soul
TTITLE0=Boogie Wonderland
TTITLE1=September
TTITLE2=After The Love Is Gone
TTITLE3=Got To Get You Into My Live
TTITLE4=In The Stone
TTITLE5=Can't Let Go
TTITLE6=Fantasy
TTITLE7=Rock That
TTITLE8=Freedom
TTITLE9=Let Me Love You
TTITLE10=Getaway
TTITLE11=All In The Way
TTITLE12=Where Do We Go From Here
TTITLE13=Magoc mind
TTITLE14=Brazilian Rhyme
TTITLE15=Serpentine Fire
TTITLE16=Rio After Dark
TTITLE17=The Promise
EXTD=
EXTT0=
EXTT1=
EXTT2=
EXTT3=
EXTT4=
EXTT5=
EXTT6=
EXTT7=
EXTT8=
EXTT9=
EXTT10=
EXTT11=
EXTT12=
EXTT13=
EXTT14=
EXTT15=
EXTT16=
EXTT17=
PLAYORDER=
